<?xml version="1.0" standalone="no"?><!-- Generator: Gravit.io --><svg xmlns="http://www.w3.org/2000/svg" xmlns:xlink="http://www.w3.org/1999/xlink" style="isolation:isolate" viewBox="510.037 211.005 519.929 514.952" width="519.929" height="514.952"><g id="Group"><g id="Group"><path d=" M 761.738 349.628 C 778.143 430.704 738.261 520.179 738.261 520.179" fill="none" vector-effect="non-scaling-stroke" stroke-width="25.281" stroke="rgb(77,182,172)" stroke-linejoin="miter" stroke-linecap="round" stroke-miterlimit="4"/><path d=" M 873.514 403.893 C 888.325 328.776 810.598 233.36 793.422 211.005 C 781.364 255.851 668.362 297.972 664.761 374.631 C 662.2 428.911 695.608 459.965 759.109 442.459 C 805.629 485.845 863.008 457.052 873.514 403.893 Z " fill="rgb(128,182,77)"/><path d=" M 793.435 211.027 C 800.293 245.127 796.623 311.986 759.427 442.706 C 805.843 485.685 863.023 456.927 873.514 403.893 C 888.309 328.785 810.676 233.432 793.435 211.027 Z " fill="rgb(105,150,0)"/></g><g id="Group"><path d=" M 648.66 470.489 C 729.736 454.084 819.21 493.965 819.21 493.965" fill="none" vector-effect="non-scaling-stroke" stroke-width="25.281" stroke="rgb(77,182,172)" stroke-linejoin="miter" stroke-linecap="round" stroke-miterlimit="4"/><path d=" M 702.924 358.713 C 627.807 343.902 532.392 421.628 510.037 438.805 C 554.883 450.863 597.004 563.864 673.662 567.466 C 727.943 570.027 758.996 536.619 741.491 473.117 C 784.877 426.598 756.084 369.219 702.924 358.713 Z " fill="rgb(128,182,77)"/><path d=" M 510.059 438.792 C 544.159 431.934 611.018 435.603 741.738 472.8 C 784.717 426.384 755.959 369.204 702.924 358.713 C 627.817 343.918 532.464 421.551 510.059 438.792 Z " fill="rgb(105,150,0)"/></g><g id="Group"><path d=" M 778.265 587.333 C 761.86 506.258 801.741 416.783 801.741 416.783" fill="none" vector-effect="non-scaling-stroke" stroke-width="25.281" stroke="rgb(77,182,172)" stroke-linejoin="miter" stroke-linecap="round" stroke-miterlimit="4"/><path d=" M 666.489 533.069 C 651.678 608.186 729.404 703.601 746.58 725.957 C 758.639 681.111 871.64 638.989 875.242 562.331 C 877.803 508.051 844.395 476.997 780.893 494.502 C 734.374 451.116 676.995 479.909 666.489 533.069 Z " fill="rgb(128,182,77)"/><path d=" M 746.568 725.935 C 739.71 691.835 743.379 624.975 780.575 494.255 C 734.16 451.277 676.98 480.035 666.489 533.069 C 651.694 608.177 729.326 703.53 746.568 725.935 Z " fill="rgb(105,150,0)"/></g><g id="Group"><path d=" M 891.342 454.064 C 810.267 470.469 720.792 430.588 720.792 430.588" fill="none" vector-effect="non-scaling-stroke" stroke-width="25.281" stroke="rgb(77,182,172)" stroke-linejoin="miter" stroke-linecap="round" stroke-miterlimit="4"/><path d=" M 837.078 565.84 C 912.195 580.651 1007.611 502.924 1029.966 485.748 C 985.12 473.69 942.999 360.688 866.34 357.087 C 812.06 354.526 781.006 387.934 798.512 451.435 C 755.126 497.955 783.918 555.334 837.078 565.84 Z " fill="rgb(128,182,77)"/><path d=" M 1029.944 485.761 C 995.844 492.619 928.984 488.95 798.264 451.753 C 755.286 498.169 784.044 555.349 837.078 565.84 C 912.186 580.635 1007.539 503.002 1029.944 485.761 Z " fill="rgb(105,150,0)"/></g></g><g id="Group"><path d="M 675.138 370.956 L 864.864 370.956 C 867.556 370.956 869.741 373.141 869.741 375.832 L 869.741 561.13 C 869.741 563.821 867.556 566.006 864.864 566.006 L 675.138 566.006 C 672.447 566.006 670.262 563.821 670.262 561.13 L 670.262 375.832 C 670.262 373.141 672.447 370.956 675.138 370.956 Z" style="stroke:none;fill:#DDC79E;stroke-miterlimit:10;"/><path d=" M 861.722 566.006 L 770.001 566.006 L 678.281 566.006 C 676.172 566.006 675.69 564.816 677.207 563.349 L 722.23 519.811 L 767.254 476.273 C 768.77 474.807 771.232 474.807 772.749 476.273 L 817.772 519.811 L 862.796 563.349 C 864.312 564.816 863.831 566.006 861.722 566.006 Z " fill="rgb(247,220,171)"/><path d=" M 678.281 370.956 L 770.001 370.956 L 861.722 370.956 C 863.831 370.956 864.312 372.146 862.796 373.612 L 817.772 417.15 L 772.749 460.688 C 771.232 462.155 768.77 462.155 767.254 460.688 L 722.23 417.15 L 677.207 373.612 C 675.69 372.146 676.172 370.956 678.281 370.956 Z " fill="rgb(247,220,171)"/><path d=" M 869.741 560.201 L 869.741 468.481 L 869.741 376.761 C 869.741 374.651 868.55 374.17 867.084 375.686 L 823.546 420.71 L 780.008 465.734 C 778.541 467.25 778.541 469.712 780.008 471.228 L 823.546 516.252 L 867.084 561.275 C 868.55 562.792 869.741 562.31 869.741 560.201 Z " fill="rgb(247,220,171)"/><path d=" M 670.262 376.761 L 670.262 468.481 L 670.262 560.201 C 670.262 562.31 671.452 562.792 672.919 561.275 L 716.457 516.252 L 759.995 471.228 C 761.461 469.712 761.461 467.25 759.995 465.734 L 716.457 420.71 L 672.919 375.686 C 671.452 374.17 670.262 374.651 670.262 376.761 Z " fill="rgb(247,220,171)"/></g></svg>